# xmcd
#
# Track frame offsets: 
#        150
#        14903
#        34300
#        46278
#        67830
#        80583
#        89813
#        102493
#
# Disc length: 1595 seconds
#
# Revision: 0
# Processed by: cddbd v1.5.1PL0 Copyright (c) Steve Scherf et al.
# Submitted via: ExactAudioCopy v0.95a5
#
DISCID=6d063908
DTITLE=Kathleen Cairns and Tatto Blue - Don't Try This At Home
DYEAR=1975
DGENRE=Blues
TTITLE0=Hello Josephine
TTITLE1=Love Is A Train
TTITLE2=Feelin' Happy
TTITLE3=Walk Away
TTITLE4=Long as I'm moving
TTITLE5=How You Carry On
TTITLE6=Baby I Love You
TTITLE7=You Got What It Takes
EXTD=
EXTT0=
EXTT1=
EXTT2=
EXTT3=
EXTT4=
EXTT5=
EXTT6=
EXTT7=
PLAYORDER=
